# xmcd
#
# Track frame offsets:
#	150
#	14645
#	31725
#	46740
#	58730
#	80370
#	96005
#	108885
#	118882
#
# Disc length: 2376 seconds
#
# Revision: 0
# Processed by: cddbd v1.4PL0 Copyright (c) Steve Scherf et al.
# Submitted via: dBpowerAMP V4.0
#
DISCID=69094609
DTITLE=Wendy Bagwell and the Sunliters - I Feel Like Singing
DYEAR=1995
DGENRE=Gospel
TTITLE0=Healin In The Rain
TTITLE1=Thomas
TTITLE2=A Holy Hymn
TTITLE3=John Saw A Lamb
TTITLE4=Love's Never Too Late
TTITLE5=Break The Bread
TTITLE6=The Other Side Of Life
TTITLE7=Ashes To Ashes Dust To Dust
TTITLE8=Women,Cholesterol, Wine,Two Uncles, An Egg, And A T.V. Doctor
EXTD=
EXTT0=
EXTT1=
EXTT2=
EXTT3=
EXTT4=
EXTT5=
EXTT6=
EXTT7=
EXTT8=
PLAYORDER=
